{
  "source": "C:\\Users\\Peter\\Desktop\\stuff\\MIUN\\quantitative_research\\video_compression\\videos\\BVI-HD\\BVI-HD_CDVL_videos\\ORIG\\Toys_1920x1080_30fps.mp4",
  "output": "C:\\Users\\Peter\\Desktop\\stuff\\MIUN\\quantitative_research\\video_compression\\compressed_videos\\BVI-HD\\av1\\2\\Toys_1920x1080_30fps_av1.mkv",
  "codec": "av1",
  "ok": "Input #0, mov,mp4,m4a,3gp,3g2,mj2, from 'C:\\Users\\Peter\\Desktop\\stuff\\MIUN\\quantitative_research\\video_compression\\videos\\BVI-HD\\BVI-HD_CDVL_videos\\ORIG\\Toys_1920x1080_30fps.mp4':\n  Metadata:\n    major_brand     : isom\n    minor_version   : 512\n    compatible_brands: isomiso2avc1mp41\n    encoder         : Lavf54.28.101\n  Duration: 00:00:05.00, start: 0.000000, bitrate: 270887 kb/s\n  Stream #0:0[0x1](und): Video: h264 (High 4:4:4 Predictive) (avc1 / 0x31637661), yuv420p(progressive), 1920x1080, 270883 kb/s, 30 fps, 30 tbr, 30 tbn (default)\n    Metadata:\n      handler_name    : VideoHandler\n      vendor_id       : [0][0][0][0]\n[out#0/matroska @ 000002739d6a0c00] Codec AVOption b:a (set bitrate (in bits/s)) has not been used for any stream. The most likely reason is either wrong type (e.g. a video option with no video streams) or that it is a private option of some decoder which was not actually used for any stream.\nStream mapping:\n  Stream #0:0 -> #0:0 (h264 (native) -> av1 (libsvtav1))\nPress [q] to stop, [?] for help\nSvt[info]: -------------------------------------------\nSvt[info]: SVT [version]:\tSVT-AV1 Encoder Lib v3.1.0-19-g6ecfe8ec\nSvt[info]: SVT [build]  :\tGCC 15.2.0\t 64 bit\nSvt[info]: LIB Build date: Aug 17 2025 11:37:13\nSvt[info]: -------------------------------------------\nSvt[info]: Level of Parallelism: 5\nSvt[info]: Number of PPCS 93\nSvt[info]: [asm level on system : up to avx2]\nSvt[info]: [asm level selected : up to avx2]\nSvt[info]: -------------------------------------------\nSvt[info]: SVT [config]: main profile\ttier (auto)\tlevel (auto)\nSvt[info]: SVT [config]: width / height / fps numerator / fps denominator \t\t: 1920 / 1080 / 30 / 1\nSvt[info]: SVT [config]: bit-depth / color format \t\t\t\t\t: 8 / YUV420\nSvt[info]: SVT [config]: preset / tune / pred struct \t\t\t\t\t: 4 / PSNR / random access\nSvt[info]: SVT [config]: gop size / mini-gop size / key-frame type \t\t\t: 161 / 16 / key frame\nSvt[info]: SVT [config]: BRC mode / target bitrate (kbps)\t\t\t\t: VBR / 2000 \nSvt[info]: SVT [config]: AQ mode / Variance Boost \t\t\t\t\t: 2 / 0\nSvt[info]: SVT [config]: sharpness / luminance-based QP bias \t\t\t\t: 0 / 0\nSvt[info]: SVT [config]: QP scale compress strength \t\t\t\t\t: 0\nSvt[info]: -------------------------------------------\nOutput #0, matroska, to 'C:\\Users\\Peter\\Desktop\\stuff\\MIUN\\quantitative_research\\video_compression\\compressed_videos\\BVI-HD\\av1\\2\\Toys_1920x1080_30fps_av1.mkv':\n  Metadata:\n    major_brand     : isom\n    minor_version   : 512\n    compatible_brands: isomiso2avc1mp41\n    encoder         : Lavf62.3.100\n  Stream #0:0(und): Video: av1 (AV01 / 0x31305641), yuv420p(tv, progressive), 1920x1080, q=2-31, 2000 kb/s, 30 fps, 1k tbn (default)\n    Metadata:\n      encoder         : Lavc62.11.100 libsvtav1\n      handler_name    : VideoHandler\n      vendor_id       : [0][0][0][0]\n    Side data:\n      cpb: bitrate max/min/avg: 0/0/2000000 buffer size: 2000000 vbv_delay: N/A\nframe=    0 fps=0.0 q=0.0 size=       0KiB time=N/A bitrate=N/A speed=N/A elapsed=0:00:01.03    \nframe=    0 fps=0.0 q=0.0 size=       0KiB time=N/A bitrate=N/A speed=N/A elapsed=0:00:01.57    \nframe=    0 fps=0.0 q=0.0 size=       0KiB time=N/A bitrate=N/A speed=N/A elapsed=0:00:02.12    \nframe=    0 fps=0.0 q=0.0 size=       0KiB time=N/A bitrate=N/A speed=N/A elapsed=0:00:02.68    \nframe=    0 fps=0.0 q=0.0 size=       0KiB time=N/A bitrate=N/A speed=N/A elapsed=0:00:03.19    \nframe=    0 fps=0.0 q=0.0 size=       0KiB time=N/A bitrate=N/A speed=N/A elapsed=0:00:03.71    \nframe=    0 fps=0.0 q=0.0 size=       0KiB time=N/A bitrate=N/A speed=N/A elapsed=0:00:04.25    \nframe=    1 fps=0.2 q=27.0 size=       1KiB time=00:00:00.00 bitrate=N/A speed=   0x elapsed=0:00:04.78    \nframe=    1 fps=0.2 q=27.0 size=       1KiB time=00:00:00.00 bitrate=N/A speed=   0x elapsed=0:00:05.30    \nframe=    1 fps=0.2 q=27.0 size=       1KiB time=00:00:00.00 bitrate=N/A speed=   0x elapsed=0:00:05.82    \nframe=    5 fps=0.8 q=43.0 size=       1KiB time=00:00:00.13 bitrate=  42.8kbits/s speed=0.021x elapsed=0:00:06.35    \nframe=    8 fps=1.2 q=46.0 size=       1KiB time=00:00:00.23 bitrate=  24.4kbits/s speed=0.0339x elapsed=0:00:06.87    \nframe=   12 fps=1.6 q=46.0 size=       1KiB time=00:00:00.36 bitrate=  15.6kbits/s speed=0.0495x elapsed=0:00:07.40    \nframe=   16 fps=2.0 q=45.0 size=       1KiB time=00:00:00.50 bitrate=  11.4kbits/s speed=0.0632x elapsed=0:00:07.91    \nframe=   20 fps=2.4 q=46.0 size=       1KiB time=00:00:00.63 bitrate=   9.0kbits/s speed=0.075x elapsed=0:00:08.44    \nframe=   24 fps=2.7 q=44.0 size=       1KiB time=00:00:00.76 bitrate=   7.4kbits/s speed=0.0855x elapsed=0:00:08.96    \nframe=   27 fps=2.8 q=44.0 size=       1KiB time=00:00:00.86 bitrate=   6.6kbits/s speed=0.0911x elapsed=0:00:09.50    \nframe=   32 fps=3.2 q=45.0 size=       1KiB time=00:00:01.03 bitrate=   5.5kbits/s speed=0.103x elapsed=0:00:10.03    \nframe=   38 fps=3.6 q=46.0 size=       1KiB time=00:00:01.23 bitrate=   4.6kbits/s speed=0.117x elapsed=0:00:10.55    \nframe=   40 fps=3.6 q=39.0 size=       1KiB time=00:00:01.30 bitrate=   4.4kbits/s speed=0.117x elapsed=0:00:11.07    \nframe=   44 fps=3.8 q=45.0 size=       1KiB time=00:00:01.43 bitrate=   4.0kbits/s speed=0.124x elapsed=0:00:11.59    \nframe=   49 fps=4.0 q=31.0 size=       1KiB time=00:00:01.60 bitrate=   3.6kbits/s speed=0.132x elapsed=0:00:12.12    \nframe=   57 fps=4.5 q=39.0 size=       1KiB time=00:00:01.86 bitrate=   3.1kbits/s speed=0.148x elapsed=0:00:12.64    \nframe=   57 fps=4.3 q=39.0 size=       1KiB time=00:00:01.86 bitrate=   3.1kbits/s speed=0.142x elapsed=0:00:13.18    \nframe=   65 fps=4.7 q=32.0 size=       1KiB time=00:00:02.13 bitrate=   2.7kbits/s speed=0.155x elapsed=0:00:13.75    \nframe=   69 fps=4.8 q=44.0 size=       1KiB time=00:00:02.26 bitrate=   2.5kbits/s speed=0.158x elapsed=0:00:14.30    \nframe=   73 fps=4.9 q=40.0 size=       1KiB time=00:00:02.40 bitrate=   2.4kbits/s speed=0.162x elapsed=0:00:14.82    \nframe=   77 fps=5.0 q=41.0 size=       1KiB time=00:00:02.53 bitrate=   2.3kbits/s speed=0.165x elapsed=0:00:15.34    \nframe=   81 fps=5.1 q=32.0 size=       1KiB time=00:00:02.66 bitrate=   2.1kbits/s speed=0.168x elapsed=0:00:15.87    \nframe=   89 fps=5.4 q=40.0 size=       1KiB time=00:00:02.93 bitrate=   1.9kbits/s speed=0.179x elapsed=0:00:16.39    \nframe=   93 fps=5.5 q=41.0 size=       1KiB time=00:00:03.06 bitrate=   1.9kbits/s speed=0.181x elapsed=0:00:16.91    \nframe=   97 fps=5.6 q=33.0 size=       1KiB time=00:00:03.20 bitrate=   1.8kbits/s speed=0.183x elapsed=0:00:17.44    \nframe=  103 fps=5.7 q=47.0 size=       1KiB time=00:00:03.40 bitrate=   1.7kbits/s speed=0.189x elapsed=0:00:17.97    \nframe=  105 fps=5.7 q=41.0 size=       1KiB time=00:00:03.46 bitrate=   1.6kbits/s speed=0.187x elapsed=0:00:18.49    \nframe=  113 fps=5.9 q=33.0 size=       1KiB time=00:00:03.73 bitrate=   1.5kbits/s speed=0.196x elapsed=0:00:19.01    \nframe=  117 fps=6.0 q=45.0 size=       1KiB time=00:00:03.86 bitrate=   1.5kbits/s speed=0.198x elapsed=0:00:19.52    \nframe=  121 fps=6.0 q=41.0 size=       1KiB time=00:00:04.00 bitrate=   1.4kbits/s speed= 0.2x elapsed=0:00:20.04    \nframe=  125 fps=6.1 q=41.0 size=       1KiB time=00:00:04.13 bitrate=   1.4kbits/s speed=0.201x elapsed=0:00:20.55    \nframe=  131 fps=6.2 q=47.0 size=       1KiB time=00:00:04.33 bitrate=   1.3kbits/s speed=0.206x elapsed=0:00:21.07    \nframe=  137 fps=6.3 q=42.0 size=       1KiB time=00:00:04.53 bitrate=   1.3kbits/s speed=0.21x elapsed=0:00:21.59    \nframe=  141 fps=6.4 q=47.0 size=       1KiB time=00:00:04.66 bitrate=   1.2kbits/s speed=0.211x elapsed=0:00:22.10    \n[out#0/matroska @ 000002739d6a0c00] video:1261KiB audio:0KiB subtitle:0KiB other streams:0KiB global headers:0KiB muxing overhead: 0.112100%\nframe=  150 fps=6.7 q=47.0 Lsize=    1263KiB time=00:00:04.96 bitrate=2082.9kbits/s speed=0.223x elapsed=0:00:22.27    \n",
  "seconds": 22.71897578239441,
  "probe_out": {}
}